<?xml version="1.0" encoding="UTF-8"?>
<svg version="1.1" xmlns="http://www.w3.org/2000/svg" width="732" height="176">
<path d="M0 0 C3.23080549 1.94296275 5.8943404 4.31339497 8.5625 6.96484375 C10.27518226 8.67300962 10.27518226 8.67300962 13.25390625 8.35546875 C13.99640625 7.61296875 14.73890625 6.87046875 15.50390625 6.10546875 C21.64581381 -0.03643881 28.79639984 -2.92994569 37.44140625 -3.01953125 C47.72934283 -2.94949424 54.79108123 0.0039232 62.2734375 7.0625 C69.99275571 15.99985658 71.05609468 26.01023237 70.25390625 37.35546875 C68.16010257 46.81542515 61.95077332 53.75774725 54.25390625 59.35546875 C54.76179687 59.76796875 55.2696875 60.18046875 55.79296875 60.60546875 C63.62633743 67.17728367 69.49435928 73.50493935 70.66015625 84.01953125 C70.92813414 95.34159691 68.81486158 103.79603579 60.81640625 112.35546875 C52.62159843 119.78881213 44.40609261 120.98282407 33.671875 120.76953125 C24.86482418 120.24334167 17.52050622 115.27392428 11.25390625 109.35546875 C10.78082031 109.814375 10.30773437 110.27328125 9.8203125 110.74609375 C1.45738893 118.50584349 -5.27974452 120.95794127 -16.58007812 120.75146484 C-26.29186889 120.34931585 -31.37069914 117.73779198 -38.40234375 110.98828125 C-45.08661815 103.47961301 -47.55760955 95.96597512 -47.32128906 86.08569336 C-46.98087573 80.44368276 -45.80299168 76.0823387 -42.74609375 71.35546875 C-42.2871875 70.63746094 -41.82828125 69.91945313 -41.35546875 69.1796875 C-38.32678188 64.81997245 -35.34862685 61.98548766 -30.74609375 59.35546875 C-31.42671875 58.86046875 -32.10734375 58.36546875 -32.80859375 57.85546875 C-40.85507125 51.00740279 -46.23193735 43.67826196 -47.68359375 33.04296875 C-48.20530391 23.47828243 -45.84242804 15.50649833 -39.55859375 8.25390625 C-28.99067022 -2.81508262 -14.32664863 -6.53786107 0 0 Z M11.25390625 49.35546875 C9.79489195 50.64636618 8.33671774 51.93821314 6.87890625 53.23046875 C5.66074219 54.30941406 5.66074219 54.30941406 4.41796875 55.41015625 C2.99595546 56.68842813 1.60596039 58.00341461 0.25390625 59.35546875 C1.69038889 60.4817675 3.1281321 61.60645865 4.56640625 62.73046875 C5.76716797 63.67019531 5.76716797 63.67019531 6.9921875 64.62890625 C8.70053837 65.93303593 10.46563351 67.16328692 12.25390625 68.35546875 C13.52591596 67.25265748 14.79646478 66.14816106 16.06640625 65.04296875 C17.12794922 64.12064453 17.12794922 64.12064453 18.2109375 63.1796875 C19.95527364 61.6221254 21.62168666 60.02888 23.25390625 58.35546875 C22.38765625 57.79859375 21.52140625 57.24171875 20.62890625 56.66796875 C17.29445552 54.45294077 14.29184869 51.95941942 11.25390625 49.35546875 Z " fill="#E8CA04" transform="translate(530.74609375,2.64453125)"/>
<path d="M0 0 C10.56 0 21.12 0 32 0 C40.73775362 8.94745971 40.73775362 8.94745971 42.5390625 12.984375 C44.83551242 17.77521306 47.59395759 21.94429621 50.6875 26.25 C51.59168073 27.56686057 52.49277625 28.88584535 53.390625 30.20703125 C57.49988627 36.20503075 61.76415019 42.09072805 66 48 C69.96 53.61 73.92 59.22 78 65 C78.33 43.55 78.66 22.1 79 0 C88.9 0 98.8 0 109 0 C109 39.27 109 78.54 109 119 C80 119 80 119 73.375 112.5 C71.9621582 110.28271484 71.9621582 110.28271484 71.11328125 108.3359375 C69.01894632 103.91357353 66.40327662 100.09605778 63.5625 96.125 C62.64155572 94.78198349 61.72360588 93.43690891 60.80859375 92.08984375 C57.95895257 87.92360251 55.04637032 83.80362852 52.125 79.6875 C47.03202827 72.50859496 42.04613466 65.26009094 37.10009766 57.97924805 C36.57851074 57.21265869 36.05692383 56.44606934 35.51953125 55.65625 C35.05651611 54.97369141 34.59350098 54.29113281 34.11645508 53.58789062 C33.09319283 52.03594774 33.09319283 52.03594774 32 51 C31.67 73.44 31.34 95.88 31 119 C20.77 119 10.54 119 0 119 C0 79.73 0 40.46 0 0 Z " fill="#FFFFFF" transform="translate(622,2)"/>
<path d="M0 0 C78.45559846 0 78.45559846 0 98.21875 18.0234375 C111.43527053 31.69745297 113.60731039 47.7510698 113.30859375 65.8984375 C112.81783658 79.30160639 107.48023813 91.47700035 98.25 101.3125 C71.30965552 126.23619681 34.6410193 119 0 119 C0 79.73 0 40.46 0 0 Z M31 28 C31 48.79 31 69.58 31 91 C55.35349536 92.34457996 55.35349536 92.34457996 73.828125 81.484375 C76.89620417 77.97484559 78.59241868 74.40865094 80 70 C80.33 69.01 80.66 68.02 81 67 C81.80303146 55.40211944 81.28476106 46.03914081 73.75 36.625 C69.22357802 31.80655079 64.33731447 29.58432862 58 28 C49.09 28 40.18 28 31 28 Z " fill="#FFFFFF" transform="translate(0,2)"/>
<path d="M0 0 C28.71 0 57.42 0 87 0 C87 8.91 87 17.82 87 27 C68.52 27 50.04 27 31 27 C31 32.94 31 38.88 31 45 C49.15 45 67.3 45 86 45 C86 53.91 86 62.82 86 72 C67.85 72 49.7 72 31 72 C31 78.6 31 85.2 31 92 C49.48 92 67.96 92 87 92 C87 100.91 87 109.82 87 119 C58.29 119 29.58 119 0 119 C0 79.73 0 40.46 0 0 Z " fill="#FFFFFF" transform="translate(126,2)"/>
<path d="M0 0 C11.55 0 23.1 0 35 0 C39.49968837 10.12429883 39.49968837 10.12429883 40.90356445 14.29418945 C41.22102127 15.22999344 41.53847809 16.16579742 41.86555481 17.12995911 C42.3594294 18.60670357 42.3594294 18.60670357 42.86328125 20.11328125 C43.21835251 21.1629155 43.57342377 22.21254974 43.93925476 23.29399109 C45.06769631 26.63215108 46.19036042 29.97221691 47.3125 33.3125 C48.4212391 36.60184827 49.53122172 39.89077268 50.64205933 43.17941284 C51.36974383 45.33438888 52.09625574 47.48976125 52.82156372 49.64553833 C54.54382222 54.75237251 56.29039215 59.84781254 58.10302734 64.92333984 C58.43078659 65.84318161 58.75854584 66.76302338 59.09623718 67.71073914 C59.70955106 69.42405412 60.32820659 71.13547014 60.95320129 72.84455872 C61.22412094 73.60121323 61.49504059 74.35786774 61.77416992 75.13745117 C62.01213791 75.79090012 62.2501059 76.44434906 62.49528503 77.11759949 C63 79 63 79 63 83 C63.66 83 64.32 83 65 83 C65.1227832 82.14414307 65.24556641 81.28828613 65.37207031 80.40649414 C66.0071888 76.96100107 66.93672751 73.81766081 68.046875 70.49609375 C68.2544342 69.8721019 68.46199341 69.24811005 68.67584229 68.60520935 C69.36224337 66.54759924 70.05574822 64.49247341 70.75 62.4375 C71.2357199 60.99041151 71.72139612 59.54330835 72.20703125 58.09619141 C76.05617402 46.66081966 80.00993209 35.26186297 84 23.875 C84.41807922 22.67929886 84.41807922 22.67929886 84.84460449 21.45944214 C85.64348869 19.17765348 86.44604189 16.89719274 87.25 14.6171875 C87.48398499 13.94868271 87.71796997 13.28017792 87.95904541 12.59141541 C89.48105951 8.29513636 91.19696531 4.20708095 93 0 C104.55 0 116.1 0 128 0 C126.08491057 6.38363142 124.15255122 12.47647407 121.6875 18.625 C116.51887019 31.62675613 111.70883302 44.76653349 106.8465271 57.88510132 C99.28666732 78.27768402 91.6443352 98.63892026 84 119 C70.8 119 57.6 119 44 119 C42.205625 114.153125 40.41125 109.30625 38.5625 104.3125 C32.84037685 88.88283207 27.03892269 73.48390085 21.21209717 58.09350586 C16.43631016 45.47785728 11.68657343 32.85420695 7.04223633 20.18945312 C5.03991237 14.74187965 2.95422768 9.34546482 0.7277832 3.98510742 C0 2 0 2 0 0 Z " fill="#FFFFFF" transform="translate(225,2)"/>
<path d="M0 0 C6.72663557 5.68515364 12.21278658 11.99450821 16 20 C16 20.66 16 21.32 16 22 C14.865625 22.53109375 13.73125 23.0621875 12.5625 23.609375 C11.04164194 24.32286397 9.52081001 25.03640862 8 25.75 C7.25621094 26.09804688 6.51242187 26.44609375 5.74609375 26.8046875 C1.98699247 28.56983071 -1.74176824 30.3709777 -5.4375 32.265625 C-9 34 -9 34 -11 34 C-12.2890625 32.5390625 -12.2890625 32.5390625 -13.625 30.625 C-14.07101562 29.99851563 -14.51703125 29.37203125 -14.9765625 28.7265625 C-16 27 -16 27 -16 25 C-16.86625 24.56880859 -16.86625 24.56880859 -17.75 24.12890625 C-19.17092503 23.41597685 -20.58815251 22.69558512 -22 21.96484375 C-22.66 21.62582031 -23.32 21.28679688 -24 20.9375 C-24.99 20.42509766 -24.99 20.42509766 -26 19.90234375 C-32.99680941 16.74558013 -40.52895177 17.24867752 -47.6875 19.625 C-56.84858543 23.36685179 -60.57136623 28.2378384 -64.8359375 37.09765625 C-68.67454954 46.66842384 -67.83793112 57.54837859 -64 67 C-59.10083297 75.39052745 -52.39138537 80.50242669 -43 83 C-33.20024547 84.18784903 -25.57210561 82.61076093 -17.6875 76.6875 C-14.62319753 73.62319753 -12.95919013 70.84302679 -11 67 C-5.07570956 68.73539821 0.3358988 71.44551609 5.875 74.125 C7.33679688 74.82689453 7.33679688 74.82689453 8.828125 75.54296875 C11.22029499 76.69214845 13.61084316 77.84457243 16 79 C15.24466506 82.34618201 14.13441081 84.59353156 12.1875 87.4375 C11.68605469 88.17871094 11.18460937 88.91992188 10.66796875 89.68359375 C2.6178335 100.86328978 -8.83735588 108.35948448 -22.265625 111.4609375 C-41.77589959 114.27727421 -60.54693233 111.61065978 -76.6875 99.75 C-89.92152281 88.76552176 -97.90892805 75.19953774 -100 58 C-101.3245603 40.22104278 -97.41454201 23.93508293 -85.8828125 10.08203125 C-64.6281555 -13.42156249 -26.06540081 -19.36392702 0 0 Z " fill="#FEFEFE" transform="translate(449,11)"/>
<path d="M0 0 C1.37676889 1.1645787 2.75198035 2.33100335 4.125 3.5 C5.115 4.16 6.105 4.82 7.125 5.5 C7.63289062 5.00628906 8.14078125 4.51257813 8.6640625 4.00390625 C15.65216298 -2.5 15.65216298 -2.5 21.125 -2.5 C21.76203857 -2.33773926 22.39907715 -2.17547852 23.05541992 -2.00830078 C26.46879278 -1.16995676 29.94322989 -1.35687933 33.4375 -1.375 C34.53868164 -1.36919922 34.53868164 -1.36919922 35.66210938 -1.36328125 C39.22569032 -1.36960526 42.3859095 -1.54760926 45.9140625 -2.19140625 C49.125 -2.5 49.125 -2.5 51.34765625 -1.34765625 C59.9158322 6.96583931 65.33163991 13.73053632 65.625 26.125 C65.64399418 35.81315019 62.33825041 43.38279424 55.6875 50.5 C47.49269218 57.93334338 39.27718636 59.12735532 28.54296875 58.9140625 C19.73591793 58.38787292 12.39159997 53.41845553 6.125 47.5 C5.65191406 47.95890625 5.17882812 48.4178125 4.69140625 48.890625 C-3.67151732 56.65037474 -10.40865077 59.10247252 -21.70898438 58.89599609 C-31.42077514 58.4938471 -36.49960539 55.88232323 -43.53125 49.1328125 C-50.2155244 41.62414426 -52.6865158 34.11050637 -52.45019531 24.23022461 C-52.1096894 18.58667954 -50.93004196 14.22916712 -47.875 9.5 C-47.42769531 8.79359375 -46.98039062 8.0871875 -46.51953125 7.359375 C-42.12677733 0.99989212 -37.01202197 -3.63771882 -29.23828125 -5.22265625 C-18.78988664 -6.44883149 -8.54286253 -6.60629723 0 0 Z " fill="#71B406" transform="translate(535.875,64.5)"/>
<path d="M0 0 C2.5024301 2.07638913 4.85829231 4.2316402 7.125 6.5625 C6.02664303 9.35063691 4.88627526 12.05687173 3.58203125 14.7578125 C0.66660481 21.58254044 0.67382002 30.77330782 3.3203125 37.68359375 C4.68827505 40.28852473 4.68827505 40.28852473 6.2265625 42.546875 C7.125 44.5625 7.125 44.5625 6.46484375 46.640625 C2.38107241 52.49839613 -3.95215904 56.88624439 -10.875 58.5625 C-20.68896854 59.63478069 -30.15481256 59.67022515 -38.35546875 53.78125 C-45.19845352 48.201741 -50.77996752 41.58544869 -52.1796875 32.60839844 C-52.96178804 24.38461123 -52.45334366 16.6497193 -47.875 9.5625 C-47.42769531 8.85609375 -46.98039062 8.1496875 -46.51953125 7.421875 C-42.12677733 1.06239212 -37.01202197 -3.57521882 -29.23828125 -5.16015625 C-18.81626399 -6.38323596 -8.56575311 -6.52759964 0 0 Z " fill="#7808FD" transform="translate(535.875,64.4375)"/>
<path d="M0 0 C7.87779545 5.48790245 11.99485878 11.98457634 15 21 C15.82531383 32.16203125 14.99677915 41.16616203 8 50.25 C1.78934597 56.69650165 -5.42131428 60.19490888 -14.35253906 60.60913086 C-24.05524553 60.67880341 -32.75861506 59.24973452 -40.25 52.625 C-42.4561492 50.13912375 -42.98020377 49.46521142 -43.125 46.0625 C-42.30325915 43.82553879 -41.39470691 41.61993176 -40.4375 39.4375 C-37.03614988 30.69117113 -38.57552737 21.44584959 -42 13 C-43 10.25 -43 10.25 -43 8 C-40.875 5.4375 -40.875 5.4375 -38 3 C-36.8553125 1.948125 -36.8553125 1.948125 -35.6875 0.875 C-25.39390062 -6.30658096 -10.73645458 -6.51921942 0 0 Z " fill="#EA631D" transform="translate(586,4)"/>
<path d="M0 0 C10 0 10 0 12.6640625 2.01953125 C13.31117188 2.94121094 13.95828125 3.86289063 14.625 4.8125 C15.34816406 5.80507812 16.07132813 6.79765625 16.81640625 7.8203125 C17.53699219 8.86960938 18.25757813 9.91890625 19 11 C20.51882508 13.06397932 22.03954835 15.12656367 23.5625 17.1875 C24.696875 18.775625 25.83125 20.36375 27 22 C27.33 14.74 27.66 7.48 28 0 C31.3 0 34.6 0 38 0 C38 13.86 38 27.72 38 42 C28 42 28 42 25.08203125 39.25390625 C24.29025815 38.04582649 23.53397719 36.8138321 22.8125 35.5625 C19.13561231 29.72647274 15.28963589 24.51524614 11 19 C10.67 26.59 10.34 34.18 10 42 C6.7 42 3.4 42 0 42 C0 28.14 0 14.28 0 0 Z " fill="#FFFFFF" transform="translate(217,133)"/>
<path d="M0 0 C1.81405987 1.64954953 2.63827944 3.20864029 3.59375 5.44921875 C-1.76474057 9.46808667 -1.76474057 9.46808667 -4.53125 9.38671875 C-6.40625 8.44921875 -6.40625 8.44921875 -8.21875 6.88671875 C-11.39997786 4.79619759 -13.67456954 5.05641028 -17.40625 5.44921875 C-21.55423495 7.24039407 -23.6476631 9.28414451 -25.40625 13.44921875 C-25.94958853 18.33926551 -25.92734104 20.44425746 -23.65625 24.82421875 C-21.01983712 27.94847354 -21.01983712 27.94847354 -17.40625 29.44921875 C-11.54079541 29.89212141 -11.54079541 29.89212141 -6.40625 27.44921875 C-6.07625 26.12921875 -5.74625 24.80921875 -5.40625 23.44921875 C-9.03625 23.44921875 -12.66625 23.44921875 -16.40625 23.44921875 C-16.40625 20.47921875 -16.40625 17.50921875 -16.40625 14.44921875 C-9.80625 14.44921875 -3.20625 14.44921875 3.59375 14.44921875 C3.738125 17.31609375 3.8825 20.18296875 4.03125 23.13671875 C4.12684204 24.47802856 4.12684204 24.47802856 4.22436523 25.84643555 C4.36380847 31.57645998 4.36380847 31.57645998 2.13842773 34.09863281 C-4.38892023 38.89224902 -10.99382907 40.04032367 -18.9453125 38.98828125 C-24.05994099 37.86793406 -27.97140727 35.84528195 -31.71875 32.19921875 C-35.32328587 26.32516029 -37.51652781 20.44269275 -36.40625 13.44921875 C-34.76780663 6.81300789 -32.32554229 2.33899767 -26.5390625 -1.4296875 C-17.64742548 -6.10349671 -8.37637663 -5.44121187 0 0 Z " fill="#FFFFFF" transform="translate(134.40625,136.55078125)"/>
<path d="M0 0 C4.00125 -0.0825 8.0025 -0.165 12.125 -0.25 C13.37555176 -0.28641602 14.62610352 -0.32283203 15.91455078 -0.36035156 C22.2316853 -0.42345167 26.28495305 -0.40442731 31 4 C33.9224897 8.38373454 34.559524 11.77777599 34 17 C32.39265334 21.17910132 30.81927559 23.62941515 27 26 C28.28762994 30.68229069 30.30113472 34.27568067 32.9765625 38.265625 C34 40 34 40 34 42 C30.37 42 26.74 42 23 42 C22.49210938 41.00097656 21.98421875 40.00195312 21.4609375 38.97265625 C20.76673417 37.66867973 20.07135992 36.36532611 19.375 35.0625 C19.04371094 34.40314453 18.71242188 33.74378906 18.37109375 33.06445312 C17.23786424 30.87521213 17.23786424 30.87521213 15 28 C13.02 27.67 11.04 27.34 9 27 C9 31.95 9 36.9 9 42 C6.03 42 3.06 42 0 42 C0 28.14 0 14.28 0 0 Z M9 8 C9 11.63 9 15.26 9 19 C15.71296676 19.35752063 15.71296676 19.35752063 22.125 17.8125 C24.20338313 16.12315608 24.20338313 16.12315608 24.625 13.5 C24.20338313 10.87684392 24.20338313 10.87684392 22.125 9.1875 C17.62380021 7.47704408 13.80213332 7.80791467 9 8 Z " fill="#FFFFFF" transform="translate(698,134)"/>
<path d="M0 0 C2.97 0 5.94 0 9 0 C9 5.28 9 10.56 9 16 C15.27 16 21.54 16 28 16 C28 10.72 28 5.44 28 0 C31.3 0 34.6 0 38 0 C38 13.86 38 27.72 38 42 C34.7 42 31.4 42 28 42 C28 36.39 28 30.78 28 25 C21.73 25 15.46 25 9 25 C9 30.61 9 36.22 9 42 C6.03 42 3.06 42 0 42 C0 28.14 0 14.28 0 0 Z " fill="#FFFFFF" transform="translate(432,134)"/>
<path d="M0 0 C1.65322266 0.01740234 1.65322266 0.01740234 3.33984375 0.03515625 C4.44457031 0.04417969 5.54929687 0.05320313 6.6875 0.0625 C7.54214844 0.07410156 8.39679688 0.08570313 9.27734375 0.09765625 C11.41998888 5.59445278 13.55605759 11.09374142 15.68603516 16.59545898 C16.41176423 18.46725551 17.13929493 20.33835453 17.86865234 22.20874023 C18.91586594 24.89516367 19.95660413 27.5840175 20.99609375 30.2734375 C21.32420044 31.11103104 21.65230713 31.94862457 21.99035645 32.81159973 C22.29066772 33.59218246 22.590979 34.3727652 22.90039062 35.17700195 C23.16686401 35.86317093 23.4333374 36.5493399 23.70788574 37.25630188 C24.27734375 39.09765625 24.27734375 39.09765625 24.27734375 42.09765625 C20.64734375 42.09765625 17.01734375 42.09765625 13.27734375 42.09765625 C12.61734375 40.11765625 11.95734375 38.13765625 11.27734375 36.09765625 C5.66734375 35.76765625 0.05734375 35.43765625 -5.72265625 35.09765625 C-6.38265625 37.40765625 -7.04265625 39.71765625 -7.72265625 42.09765625 C-11.35265625 42.09765625 -14.98265625 42.09765625 -18.72265625 42.09765625 C-16.43683723 33.92145745 -13.50890576 26.05287551 -10.42431641 18.15356445 C-9.5877908 16.00987495 -8.75837034 13.86352875 -7.9296875 11.71679688 C-3.42901184 0.12299182 -3.42901184 0.12299182 0 0 Z M2.27734375 11.09765625 C0.62734375 16.04765625 -1.02265625 20.99765625 -2.72265625 26.09765625 C0.90734375 26.09765625 4.53734375 26.09765625 8.27734375 26.09765625 C6.08654435 18.48996173 6.08654435 18.48996173 3.27734375 11.09765625 C2.94734375 11.09765625 2.61734375 11.09765625 2.27734375 11.09765625 Z " fill="#FFFFFF" transform="translate(60.72265625,132.90234375)"/>
<path d="M0 0 C3.96 0 7.92 0 12 0 C15.71147842 8.83426856 19.3015175 17.70926074 22.8125 26.625 C23.31964087 27.90235193 23.82680223 29.17969571 24.33398438 30.45703125 C25.04458008 32.26107422 25.04458008 32.26107422 25.76953125 34.1015625 C26.19854736 35.18775879 26.62756348 36.27395508 27.06958008 37.39306641 C28 40 28 40 28 42 C24.37 42 20.74 42 17 42 C16.34 39.69 15.68 37.38 15 35 C9.06 35 3.12 35 -3 35 C-3.33 36.98 -3.66 38.96 -4 41 C-5 42 -5 42 -7.50390625 42.09765625 C-8.51324219 42.08605469 -9.52257812 42.07445312 -10.5625 42.0625 C-11.57441406 42.05347656 -12.58632813 42.04445312 -13.62890625 42.03515625 C-14.41136719 42.02355469 -15.19382812 42.01195312 -16 42 C-11.19097294 27.78795661 -5.64028569 13.90007164 0 0 Z M6 11 C5.16013916 12.93467942 4.32831973 14.87285129 3.5 16.8125 C3.0359375 17.89144531 2.571875 18.97039062 2.09375 20.08203125 C0.82450697 22.94882024 0.82450697 22.94882024 1 26 C4.63 26 8.26 26 12 26 C10.35 21.05 8.7 16.1 7 11 C6.67 11 6.34 11 6 11 Z " fill="#FFFFFF" transform="translate(502,134)"/>
<path d="M0 0 C4.29 0 8.58 0 13 0 C15.14041008 5.65842453 17.27654705 11.31843615 19.40869141 16.97998047 C20.13504875 18.90685864 20.86258424 20.83329311 21.59130859 22.75927734 C22.63687179 25.52326278 23.67822625 28.28880165 24.71875 31.0546875 C25.04685669 31.9193161 25.37496338 32.7839447 25.7130127 33.67477417 C26.01332397 34.47545319 26.31363525 35.2761322 26.62304688 36.10107422 C26.88952026 36.8072287 27.15599365 37.51338318 27.43054199 38.24093628 C28 40 28 40 28 42 C24.37 42 20.74 42 17 42 C16.01 38.535 16.01 38.535 15 35 C6.585 35.495 6.585 35.495 -2 36 C-2.66 37.98 -3.32 39.96 -4 42 C-7.63 42 -11.26 42 -15 42 C-14.36420859 36.80590743 -12.75893991 32.36108408 -10.83984375 27.5390625 C-10.53051407 26.74849457 -10.22118439 25.95792664 -9.90248108 25.1434021 C-8.9196015 22.63508858 -7.92868752 20.13004057 -6.9375 17.625 C-6.26704393 15.91817849 -5.59711633 14.21114929 -4.92773438 12.50390625 C-3.29126391 8.3335085 -1.64758357 4.16601915 0 0 Z M6 11 C5.16260219 13.1234016 4.33019717 15.2487728 3.5 17.375 C3.0359375 18.55835938 2.571875 19.74171875 2.09375 20.9609375 C0.88712206 23.7753244 0.88712206 23.7753244 1 26 C4.63 26 8.26 26 12 26 C10.35 21.05 8.7 16.1 7 11 C6.67 11 6.34 11 6 11 Z " fill="#FFFFFF" transform="translate(287,133)"/>
<path d="M0 0 C9.9 0 19.8 0 30 0 C30 2.64 30 5.28 30 8 C23.4 8 16.8 8 10 8 C10 10.64 10 13.28 10 16 C16.6 16 23.2 16 30 16 C30 18.97 30 21.94 30 25 C23.4 25 16.8 25 10 25 C10 27.64 10 30.28 10 33 C16.6 33 23.2 33 30 33 C30 35.97 30 38.94 30 42 C20.1 42 10.2 42 0 42 C0 28.14 0 14.28 0 0 Z " fill="#FFFFFF" transform="translate(648,134)"/>
<path d="M0 0 C3.3 0 6.6 0 10 0 C10.00410889 0.82201904 10.00821777 1.64403809 10.01245117 2.4909668 C10.04539243 6.22387042 10.11604104 9.95514334 10.1875 13.6875 C10.19330078 14.98107422 10.19910156 16.27464844 10.20507812 17.60742188 C10.23408203 18.85458984 10.26308594 20.10175781 10.29296875 21.38671875 C10.31653442 23.10701294 10.31653442 23.10701294 10.34057617 24.86206055 C11.19372503 28.92186148 12.79763034 30.4426525 16 33 C19.91636788 33.55948113 22.68935479 33.20709681 26 31 C27.42267862 28.15464275 27.21971869 25.63781448 27.31640625 22.4609375 C27.35830078 21.15898437 27.40019531 19.85703125 27.44335938 18.515625 C27.48317299 17.13541955 27.52288522 15.75521117 27.5625 14.375 C27.60569407 12.98696585 27.64930865 11.59894472 27.69335938 10.2109375 C27.79972 6.80739744 27.90174714 3.40378222 28 0 C31.3 0 34.6 0 38 0 C38.09969463 4.12582397 38.17185233 8.25117097 38.21972656 12.37792969 C38.2397063 13.77844473 38.2669002 15.17887782 38.30175781 16.57910156 C38.65724872 31.23787374 38.65724872 31.23787374 34 38 C28.42051723 42.59009307 22.36256813 42.44138371 15.3671875 42.43359375 C10.49000666 41.8055577 7.17313159 40.20571857 3.75 36.6875 C0.50073487 31.69755713 -0.24935195 27.17936232 -0.1953125 21.2890625 C-0.18886719 20.04511719 -0.18242187 18.80117187 -0.17578125 17.51953125 C-0.15902344 16.23433594 -0.14226562 14.94914063 -0.125 13.625 C-0.11597656 12.31660156 -0.10695312 11.00820312 -0.09765625 9.66015625 C-0.07415085 6.4399163 -0.04129087 3.22005293 0 0 Z " fill="#FFFFFF" transform="translate(158,133)"/>
<path d="M0 0 C6.0328125 -0.0928125 6.0328125 -0.0928125 12.1875 -0.1875 C14.07698364 -0.22846802 14.07698364 -0.22846802 16.00463867 -0.27026367 C17.50861206 -0.28150269 17.50861206 -0.28150269 19.04296875 -0.29296875 C20.06414795 -0.3086792 21.08532715 -0.32438965 22.13745117 -0.34057617 C26.47171237 0.17509925 29.07255079 2.19788176 32.3125 5 C34.89465508 9.59049792 34.99049183 13.86411642 34 19 C31.75263835 23.02975192 29.39346027 25.53551324 25 27 C22.42502932 27.07035439 19.88550071 27.0934934 17.3125 27.0625 C13.6928125 27.0315625 13.6928125 27.0315625 10 27 C10 31.95 10 36.9 10 42 C6.7 42 3.4 42 0 42 C0 28.14 0 14.28 0 0 Z M10 8 C10 11.63 10 15.26 10 19 C17.06719153 19.67545606 17.06719153 19.67545606 23.1875 16.75 C25.18503965 14.24416969 25.18503965 14.24416969 25.0625 11.8125 C23.67530036 9.44610061 22.53908651 9.00423283 20 8 C17.40845081 7.75970041 17.40845081 7.75970041 14.75 7.875 C12.39875 7.936875 12.39875 7.936875 10 8 Z " fill="#FFFFFF" transform="translate(546,134)"/>
<path d="M0 0 C3.47587428 2.57214697 5.01644194 4.60143781 7.125 8.3125 C1.94921875 11.53515625 1.94921875 11.53515625 0.125 12.3125 C-2.92360014 11.29629995 -3.74166922 10.53858429 -5.875 8.3125 C-8.93929776 6.78035112 -11.4915642 7.08311452 -14.875 7.3125 C-18.66506025 8.77684146 -19.70340975 10.01507689 -21.75 13.5625 C-23.21525192 18.44667306 -22.65321106 21.76562744 -21.1875 26.5625 C-19.11508269 29.32572308 -17.11709299 30.17176358 -13.875 31.3125 C-9.71738215 31.52038089 -6.66005072 30.96016685 -3.375 28.25 C-2.6325 27.2909375 -2.6325 27.2909375 -1.875 26.3125 C1.095 27.3025 4.065 28.2925 7.125 29.3125 C4.42086764 34.57053515 0.83675457 38.40858181 -4.875 40.3125 C-12.55592686 40.95345286 -19.55880918 41.17686497 -25.875 36.3125 C-30.12288675 32.33691368 -32.54212447 28.04908722 -33.24609375 22.26171875 C-33.3963761 14.88020353 -32.88255202 9.91651943 -27.875 4.3125 C-20.55428018 -3.21157315 -9.29886456 -4.72890976 0 0 Z " fill="#FFFFFF" transform="translate(406.875,135.6875)"/>
<path d="M0 0 C11.22 0 22.44 0 34 0 C34 2.64 34 5.28 34 8 C30.04 8 26.08 8 22 8 C22 19.22 22 30.44 22 42 C18.7 42 15.4 42 12 42 C12 30.78 12 19.56 12 8 C8.04 8 4.08 8 0 8 C0 5.36 0 2.72 0 0 Z " fill="#FFFFFF" transform="translate(596,134)"/>
<path d="M0 0 C3.3 0 6.6 0 10 0 C10 10.89 10 21.78 10 33 C15.61 33 21.22 33 27 33 C27 35.97 27 38.94 27 42 C18.09 42 9.18 42 0 42 C0 28.14 0 14.28 0 0 Z " fill="#FFFFFF" transform="translate(0,133)"/>
</svg>
